<?xml version="1.0" encoding="UTF-8" standalone="no"?>
<svg
   xmlns:dc="http://purl.org/dc/elements/1.1/"
   xmlns:cc="http://creativecommons.org/ns#"
   xmlns:rdf="http://www.w3.org/1999/02/22-rdf-syntax-ns#"
   xmlns:svg="http://www.w3.org/2000/svg"
   xmlns="http://www.w3.org/2000/svg"
   xmlns:sodipodi="http://sodipodi.sourceforge.net/DTD/sodipodi-0.dtd"
   xmlns:inkscape="http://www.inkscape.org/namespaces/inkscape"
   width="207.20279mm"
   height="128.20261mm"
   viewBox="0 0 207.20279 128.20261"
   version="1.1"
   id="svg8"
   inkscape:version="1.0.2 (e86c870879, 2021-01-15)"
   sodipodi:docname="visvivi.svg">
  <defs
     id="defs2" />
  <sodipodi:namedview
     id="base"
     pagecolor="#ffffff"
     bordercolor="#666666"
     borderopacity="1.0"
     inkscape:pageopacity="0.0"
     inkscape:pageshadow="2"
     inkscape:zoom="0.96803582"
     inkscape:cx="127.81062"
     inkscape:cy="391.4075"
     inkscape:document-units="mm"
     inkscape:current-layer="g939"
     inkscape:document-rotation="0"
     showgrid="false"
     inkscape:window-width="1912"
     inkscape:window-height="1045"
     inkscape:window-x="4"
     inkscape:window-y="31"
     inkscape:window-maximized="0"
     inkscape:pagecheckerboard="false"
     fit-margin-top="0"
     fit-margin-left="0"
     fit-margin-right="0"
     fit-margin-bottom="0" />
  <metadata
     id="metadata5">
    <rdf:RDF>
      <cc:Work
         rdf:about="">
        <dc:format>image/svg+xml</dc:format>
        <dc:type
           rdf:resource="http://purl.org/dc/dcmitype/StillImage" />
        <dc:title />
      </cc:Work>
    </rdf:RDF>
  </metadata>
  <g
     inkscape:label="Layer 1"
     inkscape:groupmode="layer"
     id="layer1"
     transform="translate(-1.1676656,-1.5714066)">
    <g
       id="g939"
       transform="matrix(4.2801002,0,0,4.2801002,-185.97737,-419.35684)">
      <path
         style="fill:#000000;stroke:#000000;stroke-width:0.264583px;stroke-linecap:butt;stroke-linejoin:miter;stroke-opacity:1"
         d="m 91.968083,115.67476 c 0,0 -6.99467,5.83622 -13.02096,7.8697 -7.69894,2.59789 -16.1287,1.47855 -16.1287,1.47855 l 3.33866,-3.31006 c 0,0 6.82192,0.13123 10.30319,-1.16577 5.84678,-2.17831 9.13711,-5.58515 9.13711,-5.58515 0,0 -2.92331,-6.04328 -7.64867,-7.70134 -3.61441,-1.26824 -1.61254,-1.96119 -1.61254,-1.96119 0,0 3.26231,-5.16237 5.01894,-6.821025 0.46739,-0.11529 -0.64854,3.543975 0.5714,3.994225 1.40692,0.51926 0.14387,2.6428 0.76225,2.97274 5.38339,2.87231 9.27932,10.22932 9.27932,10.22932 z"
         id="path10"
         sodipodi:nodetypes="csccscsccssc" />
      <path
         style="fill:#000000;stroke:#000000;stroke-width:0.264583px;stroke-linecap:butt;stroke-linejoin:miter;stroke-opacity:1"
         d="m 43.891553,110.96925 c 0,0 6.994678,-5.83622 13.020965,-7.8697 7.698937,-2.59789 16.128694,-1.47855 16.128694,-1.47855 l -3.338659,3.31006 c 0,0 -6.821914,-0.13123 -10.303182,1.16577 -5.846786,2.17831 -9.137113,5.58515 -9.137113,5.58515 0,0 2.923307,6.04328 7.648668,7.70134 3.614413,1.26824 1.612543,1.96119 1.612543,1.96119 0,0 -3.262313,5.16237 -5.018946,6.82103 -0.467384,0.11529 0.648544,-3.54398 -0.571391,-3.99423 -1.406925,-0.51926 -0.143878,-2.6428 -0.762256,-2.97274 -5.383389,-2.87231 -9.279323,-10.22932 -9.279323,-10.22932 z"
         id="path10-5"
         sodipodi:nodetypes="csccscsccssc" />
      <path
         id="path92"
         style="fill:#000000;fill-opacity:1;stroke:none;stroke-width:0.35026;stroke-opacity:1"
         d="m 68.056641,107.82617 c -2.74159,0.0711 -5.523302,2.44896 -5.606065,5.18991 -0.142998,2.10181 0.71058,4.03595 2.521492,5.06789 -0.07552,-0.40113 3.069105,-1.17652 2.047048,-3.52577 -0.309185,-0.71068 2.533944,-1.57301 1.937067,-2.49368 -0.982324,-1.51521 2.482634,-3.46427 2.482634,-3.46427 -1.071006,-0.75944 -2.057585,-0.85453 -3.382176,-0.77408 z"
         sodipodi:nodetypes="cccsscc" />
    </g>
  </g>
</svg>
